<?xml version="1.0" encoding="UTF-8" standalone="no"?>
<!DOCTYPE svg PUBLIC "-//W3C//DTD SVG 1.1//EN"
 "http://www.w3.org/Graphics/SVG/1.1/DTD/svg11.dtd">
<!-- Generated by graphviz version 16.0.0 (20260814.1018)
 -->
<!-- Title: main Pages: 1 -->
<svg width="482pt" height="498pt"
 viewBox="0.00 0.00 482.00 498.00" xmlns="http://www.w3.org/2000/svg" xmlns:xlink="http://www.w3.org/1999/xlink">
<g id="graph0" class="graph" transform="scale(1 1) rotate(0) translate(4 494)">
<title>main</title>
<!-- Node1 -->
<g id="Node000001" class="node">
<title>Node1</title>
<g id="a_Node000001"><a xlink:title="Runs behavior checks, prints initial metrics and benchmarks the mock.">
<polygon fill="#999999" stroke="#666666" points="45.83,-255 8.83,-255 8.83,-235 45.83,-235 45.83,-255"/>
<text xml:space="preserve" text-anchor="middle" x="27.33" y="-241.5" font-family="Helvetica,sans-Serif" font-size="10.00">main</text>
</a>
</g>
</g>
<!-- Node1&#45;&gt;Node1 -->
<g id="edge10_Node000001_Node000001" class="edge">
<title>Node1&#45;&gt;Node1</title>
<g id="a_edge10_Node000001_Node000001"><a xlink:title=" ">
<path fill="none" stroke="#63b8ff" d="M8.47,-252.46C-6.71,-261.83 -0.42,-273 27.33,-273 47.27,-273 56.13,-267.23 53.9,-260.5"/>
<polygon fill="#63b8ff" stroke="#63b8ff" points="56.68,-258.35 47.23,-253.55 51.62,-263.19 56.68,-258.35"/>
</a>
</g>
</g>
<!-- Node2 -->
<g id="Node000002" class="node">
<title>Node2</title>
<g id="a_Node000002"><a xlink:href="namespaceanonymous__namespace_02main_8cpp_03.html#a2169d9d0bcca1c71747ccee945a9443f" target="_top" xlink:title="Warms up and times repeated calls using std::chrono::steady_clock.">
<polygon fill="white" stroke="#666666" points="231.7,-472 109.95,-472 109.95,-440 231.7,-440 231.7,-472"/>
<text xml:space="preserve" text-anchor="start" x="117.95" y="-458.5" font-family="Helvetica,sans-Serif" font-size="10.00">anonymous_namespace</text>
<text xml:space="preserve" text-anchor="middle" x="170.83" y="-446.5" font-family="Helvetica,sans-Serif" font-size="10.00">{main::cpp}::benchmark</text>
</a>
</g>
</g>
<!-- Node1&#45;&gt;Node2 -->
<g id="edge1_Node000001_Node000002" class="edge">
<title>Node1&#45;&gt;Node2</title>
<g id="a_edge1_Node000001_Node000002"><a xlink:title=" ">
<path fill="none" stroke="#63b8ff" d="M28.05,-255.14C27.79,-286.16 31.37,-380.71 81.83,-431 86.85,-436 92.79,-440.02 99.18,-443.25"/>
<polygon fill="#63b8ff" stroke="#63b8ff" points="97.57,-446.36 108.14,-447.09 100.33,-439.93 97.57,-446.36"/>
</a>
</g>
</g>
<!-- Node3 -->
<g id="Node000003" class="node">
<title>Node3</title>
<g id="a_Node000003"><a xlink:href="class_enterprise_documentation_system_1_1_documentation_deployment_manager.html#a81fb0cb064e49c906efca990a349e54d" target="_top" xlink:title="Replaces the stored alert conditions, even before deployment.">
<polygon fill="white" stroke="#666666" points="259.83,-422 81.83,-422 81.83,-378 259.83,-378 259.83,-422"/>
<text xml:space="preserve" text-anchor="start" x="89.83" y="-408.5" font-family="Helvetica,sans-Serif" font-size="10.00">EnterpriseDocumentationSystem</text>
<text xml:space="preserve" text-anchor="start" x="89.83" y="-396.5" font-family="Helvetica,sans-Serif" font-size="10.00">::DocumentationDeploymentManager</text>
<text xml:space="preserve" text-anchor="middle" x="170.83" y="-384.5" font-family="Helvetica,sans-Serif" font-size="10.00">::configurateAlerting</text>
</a>
</g>
</g>
<!-- Node1&#45;&gt;Node3 -->
<g id="edge3_Node000001_Node000003" class="edge">
<title>Node1&#45;&gt;Node3</title>
<g id="a_edge3_Node000001_Node000003"><a xlink:title=" ">
<path fill="none" stroke="#63b8ff" d="M29.9,-255.26C34.04,-278.74 47.38,-336.84 81.83,-369 82.58,-369.7 83.35,-370.39 84.13,-371.06"/>
<polygon fill="#63b8ff" stroke="#63b8ff" points="81.72,-373.63 91.84,-376.76 85.89,-368 81.72,-373.63"/>
</a>
</g>
</g>
<!-- Node4 -->
<g id="Node000004" class="node">
<title>Node4</title>
<g id="a_Node000004"><a xlink:href="class_enterprise_documentation_system_1_1_documentation_deployment_manager.html#a15484500b915db4b7a1d5d2b7682dc1c" target="_top" xlink:title="Validates configuration and simulates an initial deployment.">
<polygon fill="white" stroke="#666666" points="259.83,-360 81.83,-360 81.83,-316 259.83,-316 259.83,-360"/>
<text xml:space="preserve" text-anchor="start" x="89.83" y="-346.5" font-family="Helvetica,sans-Serif" font-size="10.00">EnterpriseDocumentationSystem</text>
<text xml:space="preserve" text-anchor="start" x="89.83" y="-334.5" font-family="Helvetica,sans-Serif" font-size="10.00">::DocumentationDeploymentManager</text>
<text xml:space="preserve" text-anchor="middle" x="170.83" y="-322.5" font-family="Helvetica,sans-Serif" font-size="10.00">::deployDocumentationService</text>
</a>
</g>
</g>
<!-- Node1&#45;&gt;Node4 -->
<g id="edge4_Node000001_Node000004" class="edge">
<title>Node1&#45;&gt;Node4</title>
<g id="a_edge4_Node000001_Node000004"><a xlink:title=" ">
<path fill="none" stroke="#63b8ff" d="M34.68,-255.25C43.62,-268.88 61.16,-292.9 81.83,-307 83.44,-308.1 85.09,-309.16 86.78,-310.19"/>
<polygon fill="#63b8ff" stroke="#63b8ff" points="85.01,-313.22 95.46,-314.99 88.4,-307.09 85.01,-313.22"/>
</a>
</g>
</g>
<!-- Node8 -->
<g id="Node000008" class="node">
<title>Node8</title>
<g id="a_Node000008"><a xlink:href="class_enterprise_documentation_system_1_1_documentation_deployment_manager.html#ab7bc417c567c56ee608176190e04fdcd" target="_top" xlink:title="Sets a descriptive blue&#45;green flag, even before deployment.">
<polygon fill="white" stroke="#666666" points="259.83,-298 81.83,-298 81.83,-254 259.83,-254 259.83,-298"/>
<text xml:space="preserve" text-anchor="start" x="89.83" y="-284.5" font-family="Helvetica,sans-Serif" font-size="10.00">EnterpriseDocumentationSystem</text>
<text xml:space="preserve" text-anchor="start" x="89.83" y="-272.5" font-family="Helvetica,sans-Serif" font-size="10.00">::DocumentationDeploymentManager</text>
<text xml:space="preserve" text-anchor="middle" x="170.83" y="-260.5" font-family="Helvetica,sans-Serif" font-size="10.00">::enableBlueGreenDeployment</text>
</a>
</g>
</g>
<!-- Node1&#45;&gt;Node8 -->
<g id="edge8_Node000001_Node000008" class="edge">
<title>Node1&#45;&gt;Node8</title>
<g id="a_edge8_Node000001_Node000008"><a xlink:title=" ">
<path fill="none" stroke="#63b8ff" d="M46.25,-248.93C53.09,-250.43 61.46,-252.26 70.6,-254.26"/>
<polygon fill="#63b8ff" stroke="#63b8ff" points="69.62,-257.63 80.14,-256.35 71.12,-250.79 69.62,-257.63"/>
</a>
</g>
</g>
<!-- Node9 -->
<g id="Node000009" class="node">
<title>Node9</title>
<g id="a_Node000009"><a xlink:href="class_enterprise_documentation_system_1_1_documentation_deployment_manager.html#addc26d3b741cf3dde012c6619fd5a3eb" target="_top" xlink:title="Builds a snapshot of the current simulated state.">
<polygon fill="white" stroke="#666666" points="259.83,-236 81.83,-236 81.83,-192 259.83,-192 259.83,-236"/>
<text xml:space="preserve" text-anchor="start" x="89.83" y="-222.5" font-family="Helvetica,sans-Serif" font-size="10.00">EnterpriseDocumentationSystem</text>
<text xml:space="preserve" text-anchor="start" x="89.83" y="-210.5" font-family="Helvetica,sans-Serif" font-size="10.00">::DocumentationDeploymentManager</text>
<text xml:space="preserve" text-anchor="middle" x="170.83" y="-198.5" font-family="Helvetica,sans-Serif" font-size="10.00">::getSystemHealthMetrics</text>
</a>
</g>
</g>
<!-- Node1&#45;&gt;Node9 -->
<g id="edge9_Node000001_Node000009" class="edge">
<title>Node1&#45;&gt;Node9</title>
<g id="a_edge9_Node000001_Node000009"><a xlink:title=" ">
<path fill="none" stroke="#63b8ff" d="M46.25,-241.07C53.09,-239.57 61.46,-237.74 70.6,-235.74"/>
<polygon fill="#63b8ff" stroke="#63b8ff" points="71.12,-239.21 80.14,-233.65 69.62,-232.37 71.12,-239.21"/>
</a>
</g>
</g>
<!-- Node10 -->
<g id="Node000010" class="node">
<title>Node10</title>
<g id="a_Node000010"><a xlink:href="namespaceanonymous__namespace_02main_8cpp_03.html#ab3001d915213c551af703d77654dea1b" target="_top" xlink:title="Checks a condition in both Debug and Release builds.">
<polygon fill="white" stroke="#666666" points="231.7,-156 109.95,-156 109.95,-124 231.7,-124 231.7,-156"/>
<text xml:space="preserve" text-anchor="start" x="117.95" y="-142.5" font-family="Helvetica,sans-Serif" font-size="10.00">anonymous_namespace</text>
<text xml:space="preserve" text-anchor="middle" x="170.83" y="-130.5" font-family="Helvetica,sans-Serif" font-size="10.00">{main::cpp}::require</text>
</a>
</g>
</g>
<!-- Node1&#45;&gt;Node10 -->
<g id="edge11_Node000001_Node000010" class="edge">
<title>Node1&#45;&gt;Node10</title>
<g id="a_edge11_Node000001_Node000010"><a xlink:title=" ">
<path fill="none" stroke="#63b8ff" d="M35.25,-234.64C44.56,-221.32 62.23,-198.1 81.83,-183 92.56,-174.73 105.14,-167.44 117.37,-161.32"/>
<polygon fill="#63b8ff" stroke="#63b8ff" points="118.64,-164.59 126.15,-157.12 115.62,-158.28 118.64,-164.59"/>
</a>
</g>
</g>
<!-- Node11 -->
<g id="Node000011" class="node">
<title>Node11</title>
<g id="a_Node000011"><a xlink:href="class_enterprise_documentation_system_1_1_documentation_deployment_manager.html#ae3b0208191def2e5389c35538cc94777" target="_top" xlink:title="Restores the instance count recorded at the initial deployment.">
<polygon fill="white" stroke="#666666" points="259.83,-106 81.83,-106 81.83,-62 259.83,-62 259.83,-106"/>
<text xml:space="preserve" text-anchor="start" x="89.83" y="-92.5" font-family="Helvetica,sans-Serif" font-size="10.00">EnterpriseDocumentationSystem</text>
<text xml:space="preserve" text-anchor="start" x="89.83" y="-80.5" font-family="Helvetica,sans-Serif" font-size="10.00">::DocumentationDeploymentManager</text>
<text xml:space="preserve" text-anchor="middle" x="170.83" y="-68.5" font-family="Helvetica,sans-Serif" font-size="10.00">::rollbackToLastStableVersion</text>
</a>
</g>
</g>
<!-- Node1&#45;&gt;Node11 -->
<g id="edge13_Node000001_Node000011" class="edge">
<title>Node1&#45;&gt;Node11</title>
<g id="a_edge13_Node000001_Node000011"><a xlink:title=" ">
<path fill="none" stroke="#63b8ff" d="M29.69,-234.62C33.43,-210.26 46.08,-148.95 81.83,-115 82.57,-114.29 83.33,-113.6 84.11,-112.93"/>
<polygon fill="#63b8ff" stroke="#63b8ff" points="85.88,-115.97 91.78,-107.17 81.68,-110.37 85.88,-115.97"/>
</a>
</g>
</g>
<!-- Node12 -->
<g id="Node000012" class="node">
<title>Node12</title>
<g id="a_Node000012"><a xlink:href="class_enterprise_documentation_system_1_1_documentation_deployment_manager.html#acec1ec88c3c68efe67e5beba3b10f836" target="_top" xlink:title="Manually sets the instance count and updates simulated load balancing.">
<polygon fill="white" stroke="#666666" points="259.83,-44 81.83,-44 81.83,0 259.83,0 259.83,-44"/>
<text xml:space="preserve" text-anchor="start" x="89.83" y="-30.5" font-family="Helvetica,sans-Serif" font-size="10.00">EnterpriseDocumentationSystem</text>
<text xml:space="preserve" text-anchor="start" x="89.83" y="-18.5" font-family="Helvetica,sans-Serif" font-size="10.00">::DocumentationDeploymentManager</text>
<text xml:space="preserve" text-anchor="middle" x="170.83" y="-6.5" font-family="Helvetica,sans-Serif" font-size="10.00">::scaleDocumentationProcessing</text>
</a>
</g>
</g>
<!-- Node1&#45;&gt;Node12 -->
<g id="edge15_Node000001_Node000012" class="edge">
<title>Node1&#45;&gt;Node12</title>
<g id="a_edge15_Node000001_Node000012"><a xlink:title=" ">
<path fill="none" stroke="#63b8ff" d="M28.08,-234.68C27.91,-203.09 31.72,-106.58 81.83,-53 82.2,-52.6 82.58,-52.21 82.96,-51.82"/>
<polygon fill="#63b8ff" stroke="#63b8ff" points="85.22,-54.49 90.57,-45.35 80.69,-49.16 85.22,-54.49"/>
</a>
</g>
</g>
<!-- Node2&#45;&gt;Node2 -->
<g id="edge2_Node000002_Node000002" class="edge">
<title>Node2&#45;&gt;Node2</title>
<g id="a_edge2_Node000002_Node000002"><a xlink:title=" ">
<path fill="none" stroke="#63b8ff" d="M145.21,-472.44C140.43,-481.58 148.97,-490 170.83,-490 182.78,-490 190.75,-487.48 194.74,-483.71"/>
<polygon fill="#63b8ff" stroke="#63b8ff" points="198.18,-484.35 196.22,-473.94 191.26,-483.3 198.18,-484.35"/>
</a>
</g>
</g>
<!-- Node5 -->
<g id="Node000005" class="node">
<title>Node5</title>
<g id="a_Node000005"><a xlink:href="class_enterprise_documentation_system_1_1_documentation_deployment_manager.html#a246ae2098ae8325f9781f8a405b53454" target="_top" xlink:title="Enables the simulated balancing flag exactly when currentInstances exceeds one.">
<polygon fill="white" stroke="#666666" points="473.83,-106 295.83,-106 295.83,-62 473.83,-62 473.83,-106"/>
<text xml:space="preserve" text-anchor="start" x="303.83" y="-92.5" font-family="Helvetica,sans-Serif" font-size="10.00">EnterpriseDocumentationSystem</text>
<text xml:space="preserve" text-anchor="start" x="303.83" y="-80.5" font-family="Helvetica,sans-Serif" font-size="10.00">::DocumentationDeploymentManager</text>
<text xml:space="preserve" text-anchor="middle" x="384.83" y="-68.5" font-family="Helvetica,sans-Serif" font-size="10.00">::configureLoadBalancing</text>
</a>
</g>
</g>
<!-- Node4&#45;&gt;Node5 -->
<g id="edge5_Node000004_Node000005" class="edge">
<title>Node4&#45;&gt;Node5</title>
<g id="a_edge5_Node000004_Node000005"><a xlink:title=" ">
<path fill="none" stroke="#63b8ff" d="M247.8,-315.51C252.06,-312.96 256.11,-310.13 259.83,-307 320.94,-255.42 357.52,-165.69 373.78,-117.27"/>
<polygon fill="#63b8ff" stroke="#63b8ff" points="377.07,-118.49 376.84,-107.9 370.41,-116.32 377.07,-118.49"/>
</a>
</g>
</g>
<!-- Node6 -->
<g id="Node000006" class="node">
<title>Node6</title>
<g id="a_Node000006"><a xlink:href="class_enterprise_documentation_system_1_1_documentation_deployment_manager.html#ab7173e70bdd6cb6ddeba2846c386a9b5" target="_top" xlink:title="Marks simulated monitoring as ready without contacting an endpoint.">
<polygon fill="white" stroke="#666666" points="473.83,-391 295.83,-391 295.83,-347 473.83,-347 473.83,-391"/>
<text xml:space="preserve" text-anchor="start" x="303.83" y="-377.5" font-family="Helvetica,sans-Serif" font-size="10.00">EnterpriseDocumentationSystem</text>
<text xml:space="preserve" text-anchor="start" x="303.83" y="-365.5" font-family="Helvetica,sans-Serif" font-size="10.00">::DocumentationDeploymentManager</text>
<text xml:space="preserve" text-anchor="middle" x="384.83" y="-353.5" font-family="Helvetica,sans-Serif" font-size="10.00">::setupMonitoringInfrastructure</text>
</a>
</g>
</g>
<!-- Node4&#45;&gt;Node6 -->
<g id="edge6_Node000004_Node000006" class="edge">
<title>Node4&#45;&gt;Node6</title>
<g id="a_edge6_Node000004_Node000006"><a xlink:title=" ">
<path fill="none" stroke="#63b8ff" d="M260.2,-350.92C268.15,-352.09 276.24,-353.27 284.28,-354.44"/>
<polygon fill="#63b8ff" stroke="#63b8ff" points="283.7,-357.9 294.1,-355.88 284.71,-350.97 283.7,-357.9"/>
</a>
</g>
</g>
<!-- Node7 -->
<g id="Node000007" class="node">
<title>Node7</title>
<g id="a_Node000007"><a xlink:href="class_enterprise_documentation_system_1_1_documentation_deployment_manager.html#a668c20661cfaad054ff36e2b3d2a28cc" target="_top" xlink:title="Checks required labels, instance bounds and monitoring interval.">
<polygon fill="white" stroke="#666666" points="473.83,-329 295.83,-329 295.83,-285 473.83,-285 473.83,-329"/>
<text xml:space="preserve" text-anchor="start" x="303.83" y="-315.5" font-family="Helvetica,sans-Serif" font-size="10.00">EnterpriseDocumentationSystem</text>
<text xml:space="preserve" text-anchor="start" x="303.83" y="-303.5" font-family="Helvetica,sans-Serif" font-size="10.00">::DocumentationDeploymentManager</text>
<text xml:space="preserve" text-anchor="middle" x="384.83" y="-291.5" font-family="Helvetica,sans-Serif" font-size="10.00">::validateDeploymentReadiness</text>
</a>
</g>
</g>
<!-- Node4&#45;&gt;Node7 -->
<g id="edge7_Node000004_Node000007" class="edge">
<title>Node4&#45;&gt;Node7</title>
<g id="a_edge7_Node000004_Node000007"><a xlink:title=" ">
<path fill="none" stroke="#63b8ff" d="M260.2,-325.08C268.15,-323.91 276.24,-322.73 284.28,-321.56"/>
<polygon fill="#63b8ff" stroke="#63b8ff" points="284.71,-325.03 294.1,-320.12 283.7,-318.1 284.71,-325.03"/>
</a>
</g>
</g>
<!-- Node10&#45;&gt;Node10 -->
<g id="edge12_Node000010_Node000010" class="edge">
<title>Node10&#45;&gt;Node10</title>
<g id="a_edge12_Node000010_Node000010"><a xlink:title=" ">
<path fill="none" stroke="#63b8ff" d="M145.21,-156.44C140.43,-165.58 148.97,-174 170.83,-174 182.78,-174 190.75,-171.48 194.74,-167.71"/>
<polygon fill="#63b8ff" stroke="#63b8ff" points="198.18,-168.35 196.22,-157.94 191.26,-167.3 198.18,-168.35"/>
</a>
</g>
</g>
<!-- Node11&#45;&gt;Node5 -->
<g id="edge14_Node000011_Node000005" class="edge">
<title>Node11&#45;&gt;Node5</title>
<g id="a_edge14_Node000011_Node000005"><a xlink:title=" ">
<path fill="none" stroke="#63b8ff" d="M260.2,-84C268.15,-84 276.24,-84 284.28,-84"/>
<polygon fill="#63b8ff" stroke="#63b8ff" points="284.08,-87.5 294.08,-84 284.08,-80.5 284.08,-87.5"/>
</a>
</g>
</g>
<!-- Node12&#45;&gt;Node5 -->
<g id="edge16_Node000012_Node000005" class="edge">
<title>Node12&#45;&gt;Node5</title>
<g id="a_edge16_Node000012_Node000005"><a xlink:title=" ">
<path fill="none" stroke="#63b8ff" d="M248.66,-44.47C264.07,-48.98 280.36,-53.74 296.11,-58.35"/>
<polygon fill="#63b8ff" stroke="#63b8ff" points="294.86,-61.63 305.44,-61.08 296.83,-54.91 294.86,-61.63"/>
</a>
</g>
</g>
</g>
</svg>
