<?xml version="1.0" encoding="UTF-8" standalone="no"?>
<!DOCTYPE svg PUBLIC "-//W3C//DTD SVG 1.1//EN"
 "http://www.w3.org/Graphics/SVG/1.1/DTD/svg11.dtd">
<!-- Generated by graphviz version 16.0.0 (20260814.1018)
 -->
<!-- Title: anonymous_namespace{main::cpp}::require Pages: 1 -->
<svg width="206pt" height="58pt"
 viewBox="0.00 0.00 206.00 58.00" xmlns="http://www.w3.org/2000/svg" xmlns:xlink="http://www.w3.org/1999/xlink">
<g id="graph0" class="graph" transform="scale(1 1) rotate(0) translate(4 54)">
<title>anonymous_namespace{main::cpp}::require</title>
<!-- Node1 -->
<g id="Node000001" class="node">
<title>Node1</title>
<g id="a_Node000001"><a xlink:title="Checks a condition in both Debug and Release builds.">
<polygon fill="#999999" stroke="#666666" points="198.06,-32 76.31,-32 76.31,0 198.06,0 198.06,-32"/>
<text xml:space="preserve" text-anchor="start" x="84.31" y="-18.5" font-family="Helvetica,sans-Serif" font-size="10.00">anonymous_namespace</text>
<text xml:space="preserve" text-anchor="middle" x="137.18" y="-6.5" font-family="Helvetica,sans-Serif" font-size="10.00">{main::cpp}::require</text>
</a>
</g>
</g>
<!-- Node1&#45;&gt;Node1 -->
<g id="edge3_Node000001_Node000001" class="edge">
<title>Node1&#45;&gt;Node1</title>
<g id="a_edge3_Node000001_Node000001"><a xlink:title=" ">
<path fill="none" stroke="#63b8ff" d="M156.41,-43.71C153.2,-47.48 146.8,-50 137.18,-50 119.61,-50 112.74,-41.58 116.59,-32.44"/>
<polygon fill="#63b8ff" stroke="#63b8ff" points="159.86,-44.29 157.6,-33.95 152.92,-43.45 159.86,-44.29"/>
</a>
</g>
</g>
<!-- Node2 -->
<g id="Node000002" class="node">
<title>Node2</title>
<g id="a_Node000002"><a xlink:href="main_8cpp.html#ae66f6b31b5ad750f1fe042a706a4e3d4" target="_top" xlink:title="Runs behavior checks, prints initial metrics and benchmarks the mock.">
<polygon fill="white" stroke="#666666" points="40.31,-26 3.31,-26 3.31,-6 40.31,-6 40.31,-26"/>
<text xml:space="preserve" text-anchor="middle" x="21.81" y="-12.5" font-family="Helvetica,sans-Serif" font-size="10.00">main</text>
</a>
</g>
</g>
<!-- Node1&#45;&gt;Node2 -->
<g id="edge1_Node000001_Node000002" class="edge">
<title>Node1&#45;&gt;Node2</title>
<g id="a_edge1_Node000001_Node000002"><a xlink:title=" ">
<path fill="none" stroke="#63b8ff" d="M64.49,-16C55.69,-16 47.41,-16 40.58,-16"/>
<polygon fill="#63b8ff" stroke="#63b8ff" points="64.33,-19.5 74.33,-16 64.33,-12.5 64.33,-19.5"/>
</a>
</g>
</g>
<!-- Node2&#45;&gt;Node2 -->
<g id="edge2_Node000002_Node000002" class="edge">
<title>Node2&#45;&gt;Node2</title>
<g id="a_edge2_Node000002_Node000002"><a xlink:title=" ">
<path fill="none" stroke="#63b8ff" d="M42.2,-37.44C39.57,-41.3 32.78,-44 21.81,-44 1.75,-44 -4.36,-34.98 3.48,-26.34"/>
<polygon fill="#63b8ff" stroke="#63b8ff" points="45.68,-37.02 40.42,-27.83 38.8,-38.3 45.68,-37.02"/>
</a>
</g>
</g>
</g>
</svg>
