<?xml version="1.0" encoding="UTF-8" standalone="no"?>
<!DOCTYPE svg PUBLIC "-//W3C//DTD SVG 1.1//EN"
 "http://www.w3.org/Graphics/SVG/1.1/DTD/svg11.dtd">
<!-- Generated by graphviz version 16.0.0 (20260814.1018)
 -->
<!-- Title: Player::checkLevelUp Pages: 1 -->
<svg width="253pt" height="66pt"
 viewBox="0.00 0.00 253.00 66.00" xmlns="http://www.w3.org/2000/svg" xmlns:xlink="http://www.w3.org/1999/xlink">
<g id="graph0" class="graph" transform="scale(1 1) rotate(0) translate(4 62)">
<title>Player::checkLevelUp</title>
<!-- Node1 -->
<g id="Node000001" class="node">
<title>Node1</title>
<g id="a_Node000001"><a xlink:title="Advances once and clears all points when a positive threshold is met.">
<polygon fill="#999999" stroke="#666666" points="112,-39 0,-39 0,-19 112,-19 112,-39"/>
<text xml:space="preserve" text-anchor="middle" x="56" y="-25.5" font-family="Helvetica,sans-Serif" font-size="10.00">Player::checkLevelUp</text>
</a>
</g>
</g>
<!-- Node2 -->
<g id="Node000002" class="node">
<title>Node2</title>
<g id="a_Node000002"><a xlink:href="class_player.html#a5bda3bad89f797546360636deb154fbb" target="_top" xlink:title="Increments the level by one without changing the score.">
<polygon fill="white" stroke="#666666" points="237.88,-58 155.12,-58 155.12,-38 237.88,-38 237.88,-58"/>
<text xml:space="preserve" text-anchor="middle" x="196.5" y="-44.5" font-family="Helvetica,sans-Serif" font-size="10.00">Player::levelUp</text>
</a>
</g>
</g>
<!-- Node1&#45;&gt;Node2 -->
<g id="edge1_Node000001_Node000002" class="edge">
<title>Node1&#45;&gt;Node2</title>
<g id="a_edge1_Node000001_Node000002"><a xlink:title=" ">
<path fill="none" stroke="#63b8ff" d="M112.14,-36.56C122.44,-37.98 133.18,-39.45 143.39,-40.85"/>
<polygon fill="#63b8ff" stroke="#63b8ff" points="142.76,-44.3 153.14,-42.19 143.71,-37.36 142.76,-44.3"/>
</a>
</g>
</g>
<!-- Node3 -->
<g id="Node000003" class="node">
<title>Node3</title>
<g id="a_Node000003"><a xlink:href="class_player.html#a7dfdc0be35fa9ae42104a6bfe47634b8" target="_top" xlink:title="Clears the score while preserving name and level.">
<polygon fill="white" stroke="#666666" points="245,-20 148,-20 148,0 245,0 245,-20"/>
<text xml:space="preserve" text-anchor="middle" x="196.5" y="-6.5" font-family="Helvetica,sans-Serif" font-size="10.00">Player::resetScore</text>
</a>
</g>
</g>
<!-- Node1&#45;&gt;Node3 -->
<g id="edge2_Node000001_Node000003" class="edge">
<title>Node1&#45;&gt;Node3</title>
<g id="a_edge2_Node000001_Node000003"><a xlink:title=" ">
<path fill="none" stroke="#63b8ff" d="M112.14,-21.44C120.14,-20.34 128.4,-19.21 136.47,-18.1"/>
<polygon fill="#63b8ff" stroke="#63b8ff" points="136.77,-21.59 146.21,-16.76 135.82,-14.65 136.77,-21.59"/>
</a>
</g>
</g>
</g>
</svg>
