<?xml version="1.0" encoding="UTF-8" standalone="no"?>
<!DOCTYPE svg PUBLIC "-//W3C//DTD SVG 1.1//EN"
 "http://www.w3.org/Graphics/SVG/1.1/DTD/svg11.dtd">
<!-- Generated by graphviz version 16.0.0 (20260814.1018)
 -->
<!-- Title: DocumentationQualityFramework.h Pages: 1 -->
<svg width="262pt" height="84pt"
 viewBox="0.00 0.00 262.00 84.00" xmlns="http://www.w3.org/2000/svg" xmlns:xlink="http://www.w3.org/1999/xlink">
<g id="graph0" class="graph" transform="scale(1 1) rotate(0) translate(4 80)">
<title>DocumentationQualityFramework.h</title>
<!-- Node1 -->
<g id="Node000001" class="node">
<title>Node1</title>
<g id="a_Node000001"><a xlink:title="Educational documentation analysis and generation mocks.">
<polygon fill="#999999" stroke="#666666" points="243,-76 73.25,-76 73.25,-56 243,-56 243,-76"/>
<text xml:space="preserve" text-anchor="middle" x="158.12" y="-62.5" font-family="Helvetica,sans-Serif" font-size="10.00">DocumentationQualityFramework.h</text>
</a>
</g>
</g>
<!-- Node2 -->
<g id="Node000002" class="node">
<title>Node2</title>
<g id="a_Node000002"><a xlink:href="_documentation_quality_framework_8cpp.html" target="_top" xlink:title="Deterministic in&#45;memory implementations; no real AI or publishing.">
<polygon fill="white" stroke="#666666" points="180.25,-20 0,-20 0,0 180.25,0 180.25,-20"/>
<text xml:space="preserve" text-anchor="middle" x="90.12" y="-6.5" font-family="Helvetica,sans-Serif" font-size="10.00">DocumentationQualityFramework.cpp</text>
</a>
</g>
</g>
<!-- Node1&#45;&gt;Node2 -->
<g id="edge1_Node000001_Node000002" class="edge">
<title>Node1&#45;&gt;Node2</title>
<g id="a_edge1_Node000001_Node000002"><a xlink:title=" ">
<path fill="none" stroke="#63b8ff" d="M137.57,-48.68C125.87,-39.39 111.64,-28.09 101.83,-20.3"/>
<polygon fill="#63b8ff" stroke="#63b8ff" points="135.09,-51.17 145.1,-54.65 139.44,-45.69 135.09,-51.17"/>
</a>
</g>
</g>
<!-- Node3 -->
<g id="Node000003" class="node">
<title>Node3</title>
<g id="a_Node000003"><a xlink:href="main_8cpp.html" target="_top" xlink:title="Small example of both documentation quality mocks.">
<polygon fill="white" stroke="#666666" points="254,-20 198.25,-20 198.25,0 254,0 254,-20"/>
<text xml:space="preserve" text-anchor="middle" x="226.12" y="-6.5" font-family="Helvetica,sans-Serif" font-size="10.00">main.cpp</text>
</a>
</g>
</g>
<!-- Node1&#45;&gt;Node3 -->
<g id="edge2_Node000001_Node000003" class="edge">
<title>Node1&#45;&gt;Node3</title>
<g id="a_edge2_Node000001_Node000003"><a xlink:title=" ">
<path fill="none" stroke="#63b8ff" d="M178.68,-48.68C190.38,-39.39 204.61,-28.09 214.42,-20.3"/>
<polygon fill="#63b8ff" stroke="#63b8ff" points="176.81,-45.69 171.15,-54.65 181.16,-51.17 176.81,-45.69"/>
</a>
</g>
</g>
</g>
</svg>
