<?xml version="1.0" encoding="UTF-8" standalone="no"?>
<!DOCTYPE svg PUBLIC "-//W3C//DTD SVG 1.1//EN"
 "http://www.w3.org/Graphics/SVG/1.1/DTD/svg11.dtd">
<!-- Generated by graphviz version 16.0.0 (20260814.1018)
 -->
<!-- Title: DocumentationQualityFramework::ContinuousDocumentationPipeline::scheduleDocumentationGeneration Pages: 1 -->
<svg width="264pt" height="58pt"
 viewBox="0.00 0.00 264.00 58.00" xmlns="http://www.w3.org/2000/svg" xmlns:xlink="http://www.w3.org/1999/xlink">
<g id="graph0" class="graph" transform="scale(1 1) rotate(0) translate(4 54)">
<title>DocumentationQualityFramework::ContinuousDocumentationPipeline::scheduleDocumentationGeneration</title>
<!-- Node1 -->
<g id="Node000001" class="node">
<title>Node1</title>
<g id="a_Node000001"><a xlink:title="Enqueues a request in FIFO order, even before initialization.">
<polygon fill="#999999" stroke="#666666" points="255.72,-44 81.47,-44 81.47,0 255.72,0 255.72,-44"/>
<text xml:space="preserve" text-anchor="start" x="89.47" y="-30.5" font-family="Helvetica,sans-Serif" font-size="10.00">DocumentationQualityFramework</text>
<text xml:space="preserve" text-anchor="start" x="89.47" y="-18.5" font-family="Helvetica,sans-Serif" font-size="10.00">::ContinuousDocumentationPipeline</text>
<text xml:space="preserve" text-anchor="middle" x="168.6" y="-6.5" font-family="Helvetica,sans-Serif" font-size="10.00">::scheduleDocumentationGeneration</text>
</a>
</g>
</g>
<!-- Node2 -->
<g id="Node000002" class="node">
<title>Node2</title>
<g id="a_Node000002"><a xlink:href="main_8cpp.html#ae66f6b31b5ad750f1fe042a706a4e3d4" target="_top" xlink:title="Analyzes a fixture, processes one request and simulates publication.">
<polygon fill="white" stroke="#666666" points="45.47,-32 8.47,-32 8.47,-12 45.47,-12 45.47,-32"/>
<text xml:space="preserve" text-anchor="middle" x="26.97" y="-18.5" font-family="Helvetica,sans-Serif" font-size="10.00">main</text>
</a>
</g>
</g>
<!-- Node1&#45;&gt;Node2 -->
<g id="edge1_Node000001_Node000002" class="edge">
<title>Node1&#45;&gt;Node2</title>
<g id="a_edge1_Node000001_Node000002"><a xlink:title=" ">
<path fill="none" stroke="#63b8ff" d="M69.81,-22C60.78,-22 52.49,-22 45.72,-22"/>
<polygon fill="#63b8ff" stroke="#63b8ff" points="69.64,-25.5 79.64,-22 69.64,-18.5 69.64,-25.5"/>
</a>
</g>
</g>
<!-- Node2&#45;&gt;Node2 -->
<g id="edge2_Node000002_Node000002" class="edge">
<title>Node2&#45;&gt;Node2</title>
<g id="a_edge2_Node000002_Node000002"><a xlink:title=" ">
<path fill="none" stroke="#63b8ff" d="M53.32,-37.94C55.01,-44.48 46.22,-50 26.97,-50 -0.41,-50 -6.62,-38.83 8.36,-29.46"/>
<polygon fill="#63b8ff" stroke="#63b8ff" points="55.93,-35.61 46.6,-30.57 50.75,-40.32 55.93,-35.61"/>
</a>
</g>
</g>
</g>
</svg>
