<?xml version="1.0" encoding="UTF-8" standalone="no"?>
<!DOCTYPE svg PUBLIC "-//W3C//DTD SVG 1.1//EN"
 "http://www.w3.org/Graphics/SVG/1.1/DTD/svg11.dtd">
<!-- Generated by graphviz version 16.0.0 (20260814.1018)
 -->
<!-- Title: DocumentationQualityFramework::AIDocumentationAnalyzer::analyzeDocumentation Pages: 1 -->
<svg width="367pt" height="108pt"
 viewBox="0.00 0.00 367.00 108.00" xmlns="http://www.w3.org/2000/svg" xmlns:xlink="http://www.w3.org/1999/xlink">
<g id="graph0" class="graph" transform="scale(1 1) rotate(0) translate(4 104)">
<title>DocumentationQualityFramework::AIDocumentationAnalyzer::analyzeDocumentation</title>
<!-- Node1 -->
<g id="Node000001" class="node">
<title>Node1</title>
<g id="a_Node000001"><a xlink:title="Analyzes a fixed &quot;Overview / Usage&quot; fixture.">
<polygon fill="#999999" stroke="#666666" points="359,-69 197.5,-69 197.5,-25 359,-25 359,-69"/>
<text xml:space="preserve" text-anchor="start" x="205.5" y="-55.5" font-family="Helvetica,sans-Serif" font-size="10.00">DocumentationQualityFramework</text>
<text xml:space="preserve" text-anchor="start" x="205.5" y="-43.5" font-family="Helvetica,sans-Serif" font-size="10.00">::AIDocumentationAnalyzer</text>
<text xml:space="preserve" text-anchor="middle" x="278.25" y="-31.5" font-family="Helvetica,sans-Serif" font-size="10.00">::analyzeDocumentation</text>
</a>
</g>
</g>
<!-- Node2 -->
<g id="Node000002" class="node">
<title>Node2</title>
<g id="a_Node000002"><a xlink:href="main_8cpp.html#ae66f6b31b5ad750f1fe042a706a4e3d4" target="_top" xlink:title="Analyzes a fixture, processes one request and simulates publication.">
<polygon fill="white" stroke="#666666" points="99.25,-82 62.25,-82 62.25,-62 99.25,-62 99.25,-82"/>
<text xml:space="preserve" text-anchor="middle" x="80.75" y="-68.5" font-family="Helvetica,sans-Serif" font-size="10.00">main</text>
</a>
</g>
</g>
<!-- Node1&#45;&gt;Node2 -->
<g id="edge1_Node000001_Node000002" class="edge">
<title>Node1&#45;&gt;Node2</title>
<g id="a_edge1_Node000001_Node000002"><a xlink:title=" ">
<path fill="none" stroke="#63b8ff" d="M186.1,-58.66C153.28,-62.85 119.47,-67.18 99.55,-69.72"/>
<polygon fill="#63b8ff" stroke="#63b8ff" points="186.19,-62.17 195.67,-57.43 185.3,-55.23 186.19,-62.17"/>
</a>
</g>
</g>
<!-- Node3 -->
<g id="Node000003" class="node">
<title>Node3</title>
<g id="a_Node000003"><a xlink:href="class_documentation_quality_framework_1_1_a_i_documentation_analyzer.html#a83e237ff463a0f3d617431d2f6b6eeaf" target="_top" xlink:title="Destroys engines where their types are complete.">
<polygon fill="white" stroke="#666666" points="161.5,-44 0,-44 0,0 161.5,0 161.5,-44"/>
<text xml:space="preserve" text-anchor="start" x="8" y="-30.5" font-family="Helvetica,sans-Serif" font-size="10.00">DocumentationQualityFramework</text>
<text xml:space="preserve" text-anchor="start" x="8" y="-18.5" font-family="Helvetica,sans-Serif" font-size="10.00">::AIDocumentationAnalyzer</text>
<text xml:space="preserve" text-anchor="middle" x="80.75" y="-6.5" font-family="Helvetica,sans-Serif" font-size="10.00">::~AIDocumentationAnalyzer</text>
</a>
</g>
</g>
<!-- Node1&#45;&gt;Node3 -->
<g id="edge3_Node000001_Node000003" class="edge">
<title>Node1&#45;&gt;Node3</title>
<g id="a_edge3_Node000001_Node000003"><a xlink:title=" ">
<path fill="none" stroke="#63b8ff" d="M185.84,-35.31C177.78,-34.28 169.66,-33.24 161.71,-32.22"/>
<polygon fill="#63b8ff" stroke="#63b8ff" points="185.3,-38.77 195.67,-36.57 186.19,-31.83 185.3,-38.77"/>
</a>
</g>
</g>
<!-- Node2&#45;&gt;Node2 -->
<g id="edge2_Node000002_Node000002" class="edge">
<title>Node2&#45;&gt;Node2</title>
<g id="a_edge2_Node000002_Node000002"><a xlink:title=" ">
<path fill="none" stroke="#63b8ff" d="M109.82,-80.98C126.57,-90 116.88,-100 80.75,-100 38.7,-100 32.46,-86.46 62.03,-76.68"/>
<polygon fill="#63b8ff" stroke="#63b8ff" points="111.45,-77.87 100.87,-77.26 108.76,-84.33 111.45,-77.87"/>
</a>
</g>
</g>
</g>
</svg>
