<?xml version="1.0" encoding="UTF-8" standalone="no"?>
<!DOCTYPE svg PUBLIC "-//W3C//DTD SVG 1.1//EN"
 "http://www.w3.org/Graphics/SVG/1.1/DTD/svg11.dtd">
<!-- Generated by graphviz version 16.0.0 (20260814.1018)
 -->
<!-- Title: DistributedDataProcessor.h Pages: 1 -->
<svg width="414pt" height="84pt"
 viewBox="0.00 0.00 414.00 84.00" xmlns="http://www.w3.org/2000/svg" xmlns:xlink="http://www.w3.org/1999/xlink">
<g id="graph0" class="graph" transform="scale(1 1) rotate(0) translate(4 80)">
<title>DistributedDataProcessor.h</title>
<!-- Node1 -->
<g id="Node000001" class="node">
<title>Node1</title>
<g id="a_Node000001"><a xlink:title="Local data&#45;processing mock with a header&#45;defined template method.">
<polygon fill="#999999" stroke="#666666" points="282,-76 145.25,-76 145.25,-56 282,-56 282,-76"/>
<text xml:space="preserve" text-anchor="middle" x="213.62" y="-62.5" font-family="Helvetica,sans-Serif" font-size="10.00">DistributedDataProcessor.h</text>
</a>
</g>
</g>
<!-- Node2 -->
<g id="Node000002" class="node">
<title>Node2</title>
<g id="a_Node000002"><a xlink:title=" ">
<polygon fill="#e0e0e0" stroke="#999999" points="45.25,-20 0,-20 0,0 45.25,0 45.25,-20"/>
<text xml:space="preserve" text-anchor="middle" x="22.62" y="-6.5" font-family="Helvetica,sans-Serif" font-size="10.00">chrono</text>
</a>
</g>
</g>
<!-- Node1&#45;&gt;Node2 -->
<g id="edge1_Node000001_Node000002" class="edge">
<title>Node1&#45;&gt;Node2</title>
<g id="a_edge1_Node000001_Node000002"><a xlink:title=" ">
<path fill="none" stroke="#63b8ff" d="M180.36,-55.59C145.69,-45.79 91.65,-30.51 56.69,-20.63"/>
<polygon fill="#63b8ff" stroke="#63b8ff" points="57.65,-17.27 47.08,-17.91 55.75,-24 57.65,-17.27"/>
</a>
</g>
</g>
<!-- Node3 -->
<g id="Node000003" class="node">
<title>Node3</title>
<g id="a_Node000003"><a xlink:title=" ">
<polygon fill="#e0e0e0" stroke="#999999" points="111.75,-20 63.5,-20 63.5,0 111.75,0 111.75,-20"/>
<text xml:space="preserve" text-anchor="middle" x="87.62" y="-6.5" font-family="Helvetica,sans-Serif" font-size="10.00">cstddef</text>
</a>
</g>
</g>
<!-- Node1&#45;&gt;Node3 -->
<g id="edge2_Node000001_Node000003" class="edge">
<title>Node1&#45;&gt;Node3</title>
<g id="a_edge2_Node000001_Node000003"><a xlink:title=" ">
<path fill="none" stroke="#63b8ff" d="M191.68,-55.59C171.92,-47.13 142.63,-34.58 120.16,-24.94"/>
<polygon fill="#63b8ff" stroke="#63b8ff" points="121.71,-21.8 111.13,-21.08 118.95,-28.23 121.71,-21.8"/>
</a>
</g>
</g>
<!-- Node4 -->
<g id="Node000004" class="node">
<title>Node4</title>
<g id="a_Node000004"><a xlink:title=" ">
<polygon fill="#e0e0e0" stroke="#999999" points="175.25,-20 130,-20 130,0 175.25,0 175.25,-20"/>
<text xml:space="preserve" text-anchor="middle" x="152.62" y="-6.5" font-family="Helvetica,sans-Serif" font-size="10.00">cstdint</text>
</a>
</g>
</g>
<!-- Node1&#45;&gt;Node4 -->
<g id="edge3_Node000001_Node000004" class="edge">
<title>Node1&#45;&gt;Node4</title>
<g id="a_edge3_Node000001_Node000004"><a xlink:title=" ">
<path fill="none" stroke="#63b8ff" d="M203,-55.59C194.34,-47.93 181.89,-36.91 171.54,-27.75"/>
<polygon fill="#63b8ff" stroke="#63b8ff" points="174.07,-25.31 164.26,-21.3 169.43,-30.55 174.07,-25.31"/>
</a>
</g>
</g>
<!-- Node5 -->
<g id="Node000005" class="node">
<title>Node5</title>
<g id="a_Node000005"><a xlink:title=" ">
<polygon fill="#e0e0e0" stroke="#999999" points="234,-20 193.25,-20 193.25,0 234,0 234,-20"/>
<text xml:space="preserve" text-anchor="middle" x="213.62" y="-6.5" font-family="Helvetica,sans-Serif" font-size="10.00">future</text>
</a>
</g>
</g>
<!-- Node1&#45;&gt;Node5 -->
<g id="edge4_Node000001_Node000005" class="edge">
<title>Node1&#45;&gt;Node5</title>
<g id="a_edge4_Node000001_Node000005"><a xlink:title=" ">
<path fill="none" stroke="#63b8ff" d="M213.62,-55.59C213.62,-49.01 213.62,-39.96 213.62,-31.73"/>
<polygon fill="#63b8ff" stroke="#63b8ff" points="217.13,-31.81 213.63,-21.81 210.13,-31.81 217.13,-31.81"/>
</a>
</g>
</g>
<!-- Node6 -->
<g id="Node000006" class="node">
<title>Node6</title>
<g id="a_Node000006"><a xlink:title=" ">
<polygon fill="#e0e0e0" stroke="#999999" points="287,-20 252.25,-20 252.25,0 287,0 287,-20"/>
<text xml:space="preserve" text-anchor="middle" x="269.62" y="-6.5" font-family="Helvetica,sans-Serif" font-size="10.00">map</text>
</a>
</g>
</g>
<!-- Node1&#45;&gt;Node6 -->
<g id="edge5_Node000001_Node000006" class="edge">
<title>Node1&#45;&gt;Node6</title>
<g id="a_edge5_Node000001_Node000006"><a xlink:title=" ">
<path fill="none" stroke="#63b8ff" d="M223.38,-55.59C231.25,-48.01 242.52,-37.13 251.97,-28.02"/>
<polygon fill="#63b8ff" stroke="#63b8ff" points="254.12,-30.81 258.89,-21.35 249.26,-25.77 254.12,-30.81"/>
</a>
</g>
</g>
<!-- Node7 -->
<g id="Node000007" class="node">
<title>Node7</title>
<g id="a_Node000007"><a xlink:title=" ">
<polygon fill="#e0e0e0" stroke="#999999" points="344.62,-20 304.62,-20 304.62,0 344.62,0 344.62,-20"/>
<text xml:space="preserve" text-anchor="middle" x="324.62" y="-6.5" font-family="Helvetica,sans-Serif" font-size="10.00">string</text>
</a>
</g>
</g>
<!-- Node1&#45;&gt;Node7 -->
<g id="edge6_Node000001_Node000007" class="edge">
<title>Node1&#45;&gt;Node7</title>
<g id="a_edge6_Node000001_Node000007"><a xlink:title=" ">
<path fill="none" stroke="#63b8ff" d="M232.96,-55.59C250.04,-47.28 275.23,-35.03 294.88,-25.47"/>
<polygon fill="#63b8ff" stroke="#63b8ff" points="296.32,-28.66 303.78,-21.14 293.25,-22.37 296.32,-28.66"/>
</a>
</g>
</g>
<!-- Node8 -->
<g id="Node000008" class="node">
<title>Node8</title>
<g id="a_Node000008"><a xlink:title=" ">
<polygon fill="#e0e0e0" stroke="#999999" points="406.12,-20 363.12,-20 363.12,0 406.12,0 406.12,-20"/>
<text xml:space="preserve" text-anchor="middle" x="384.62" y="-6.5" font-family="Helvetica,sans-Serif" font-size="10.00">vector</text>
</a>
</g>
</g>
<!-- Node1&#45;&gt;Node8 -->
<g id="edge7_Node000001_Node000008" class="edge">
<title>Node1&#45;&gt;Node8</title>
<g id="a_edge7_Node000001_Node000008"><a xlink:title=" ">
<path fill="none" stroke="#63b8ff" d="M243.41,-55.59C273.75,-46.01 320.67,-31.2 352,-21.3"/>
<polygon fill="#63b8ff" stroke="#63b8ff" points="352.85,-24.71 361.33,-18.36 350.74,-18.03 352.85,-24.71"/>
</a>
</g>
</g>
</g>
</svg>
